<svg id="visual" viewBox="0 0 2000 80" width="2000" height="80" xmlns="http://www.w3.org/2000/svg" xmlns:xlink="http://www.w3.org/1999/xlink" version="1.1"><path d="M0 50L13.3 53.7C26.7 57.3 53.3 64.7 80 67C106.7 69.3 133.3 66.7 160 67.5C186.7 68.3 213.3 72.7 240 74.2C266.7 75.7 293.3 74.3 320 72.2C346.7 70 373.3 67 400 63.7C426.7 60.3 453.3 56.7 480 57C506.7 57.3 533.3 61.7 560 61.5C586.7 61.3 613.3 56.7 640 58.2C666.7 59.7 693.3 67.3 720 69.2C746.7 71 773.3 67 800 66C826.7 65 853.3 67 880 68.2C906.7 69.3 933.3 69.7 960 68.8C986.7 68 1013.3 66 1040 65.8C1066.7 65.7 1093.3 67.3 1120 68.7C1146.7 70 1173.3 71 1200 70C1226.7 69 1253.3 66 1280 62.7C1306.7 59.3 1333.3 55.7 1360 54.7C1386.7 53.7 1413.3 55.3 1440 59.3C1466.7 63.3 1493.3 69.7 1520 69.3C1546.7 69 1573.3 62 1600 58.3C1626.7 54.7 1653.3 54.3 1680 57.3C1706.7 60.3 1733.3 66.7 1760 68.7C1786.7 70.7 1813.3 68.3 1840 67C1866.7 65.7 1893.3 65.3 1920 64.5C1946.7 63.7 1973.3 62.3 1986.7 61.7L2000 61L2000 81L1986.7 81C1973.3 81 1946.7 81 1920 81C1893.3 81 1866.7 81 1840 81C1813.3 81 1786.7 81 1760 81C1733.3 81 1706.7 81 1680 81C1653.3 81 1626.7 81 1600 81C1573.3 81 1546.7 81 1520 81C1493.3 81 1466.7 81 1440 81C1413.3 81 1386.7 81 1360 81C1333.3 81 1306.7 81 1280 81C1253.3 81 1226.7 81 1200 81C1173.3 81 1146.7 81 1120 81C1093.3 81 1066.7 81 1040 81C1013.3 81 986.7 81 960 81C933.3 81 906.7 81 880 81C853.3 81 826.7 81 800 81C773.3 81 746.7 81 720 81C693.3 81 666.7 81 640 81C613.3 81 586.7 81 560 81C533.3 81 506.7 81 480 81C453.3 81 426.7 81 400 81C373.3 81 346.7 81 320 81C293.3 81 266.7 81 240 81C213.3 81 186.7 81 160 81C133.3 81 106.7 81 80 81C53.3 81 26.7 81 13.3 81L0 81Z" fill="#ffffff" stroke-linecap="round" stroke-linejoin="miter"></path></svg>